<svg xmlns="http://www.w3.org/2000/svg" width="74.388" height="102.457" viewBox="0 0 74.388 102.457"><defs><style>.a{fill:none;stroke:#000;stroke-linejoin:round;stroke-width:3px;}</style></defs><g transform="translate(1.5 1.5)"><path class="a" d="M31.112,34H27.867A4.867,4.867,0,0,0,23,38.867V71.317l4.867,1.622v8.112" transform="translate(-1.908 19.541)"/><path class="a" d="M24.867,57,20,58.622v8.112" transform="translate(-3.775 33.858)"/><path class="a" d="M36,34h3.245a4.867,4.867,0,0,1,4.867,4.867V63.2" transform="translate(6.184 19.541)"/><path class="a" d="M54.072,11v9.735h1.622a3.245,3.245,0,0,1,3.245,3.245v2.262A4.867,4.867,0,0,1,56.771,30.3l-2.7,1.794a15.065,15.065,0,0,1-29.2,0l-2.7-1.8A4.867,4.867,0,0,1,20,26.241V23.98a3.245,3.245,0,0,1,3.245-3.245h1.622V11" transform="translate(-3.775 5.225)"/><ellipse class="a" cx="0.856" cy="2.567" rx="0.856" ry="2.567" transform="translate(42.318 25.667)"/><ellipse class="a" cx="0.856" cy="2.567" rx="0.856" ry="2.567" transform="translate(26.918 25.667)"/><path class="a" d="M23,25.245A36.152,36.152,0,0,1,37.6,22a36.152,36.152,0,0,1,14.6,3.245" transform="translate(-1.908 12.072)"/><path class="a" d="M20,30.2V13.98A12.98,12.98,0,0,1,32.98,1h12.98a12.98,12.98,0,0,1,12.98,12.98V30.2" transform="translate(-3.775 -1)"/><path class="a" d="M58.939,16.49S55.694,10,39.47,10,20,16.49,20,16.49" transform="translate(-3.775 4.602)"/><path class="a" d="M28,36l6.49,4.867L40.98,36" transform="translate(1.204 20.786)"/><path class="a" d="M36,30v9.735l22.714,6.49L65.2,70.562H50.6v12.98" transform="translate(6.184 17.051)"/><line class="a" y2="13.689" transform="translate(66.274 87.268)"/><path class="a" d="M24.6,83.541V70.562H10l6.49-24.337L39.2,39.735V30" transform="translate(-10 17.051)"/><line class="a" y2="13.689" transform="translate(4.673 87.268)"/><path class="a" d="M24,37l12.98,9.735L49.959,37" transform="translate(-1.286 21.409)"/><path class="a" d="M57.98,52H45v4.867" transform="translate(11.786 30.746)"/><path class="a" d="M35,52H46.357v9.735a3.245,3.245,0,0,1-3.245,3.245H38.245A3.245,3.245,0,0,1,35,61.735Z" transform="translate(5.562 30.746)"/><path class="a" d="M23.98,56.867V52H11" transform="translate(-9.378 30.746)"/></g></svg>