<svg xmlns="http://www.w3.org/2000/svg" width="90.524" height="88.963" viewBox="0 0 90.524 88.963"><defs><style>.a{fill:#fff;stroke:#fff;stroke-width:4px;}</style></defs><path class="a" d="M94.642,82.781a14.864,14.864,0,0,0-3.963-8.652c-6.217-6.46-17.038-5.515-17.458-5.476C54.77,69.907,55.345,87.207,55.352,87.381a1.159,1.159,0,0,0,0,.162c.54,3.188.1,5.735-1.3,7.568a8.816,8.816,0,0,1-5.723,3.064,10.91,10.91,0,0,1-9.069-3.045c-2.74-2.759-2.481-9.451-2.153-11.8v-.054c.216-2.146,1.343-3.593,2.775-5.426.6-.772,1.223-1.567,1.821-2.481a26.373,26.373,0,0,0,3.01-8.3,10.184,10.184,0,0,0,1.32-5h0c0-1.065.181-24.393-8.513-36.028.2-.212.386-.424.6-.621a11.191,11.191,0,0,1,7.8-3.23,3.184,3.184,0,0,0,2.543,2.489l3.4.621a3.257,3.257,0,0,0,.575.054,3.2,3.2,0,0,0,3.137-2.616l.077-.436a3.191,3.191,0,0,0-2.562-3.712l-3.4-.621a3.172,3.172,0,0,0-3.334,1.571,13.927,13.927,0,0,0-10.034,3.929c-.178.166-.343.351-.517.525-.17-.174-.34-.359-.517-.525a13.927,13.927,0,0,0-10.034-3.929,3.141,3.141,0,0,0-3.338-1.571l-3.4.621a3.2,3.2,0,0,0-2.593,3.724l.081.432a3.2,3.2,0,0,0,3.137,2.616,3.257,3.257,0,0,0,.575-.054l3.4-.621a3.164,3.164,0,0,0,2.068-1.339,3.234,3.234,0,0,0,.5-1.158,11.214,11.214,0,0,1,7.776,3.218c.208.2.386.409.606.621-8.66,11.577-8.529,34.774-8.517,36.005h0a10.184,10.184,0,0,0,1.32,5.017,26.274,26.274,0,0,0,3.014,8.3c.594.915,1.219,1.71,1.821,2.481,1.4,1.794,2.508,3.226,2.752,5.306-.174,1.428-1.03,9.868,2.929,13.85a13.468,13.468,0,0,0,9.609,3.925,9.91,9.91,0,0,0,1.69-.12,11.373,11.373,0,0,0,7.471-4.052c1.876-2.435,2.5-5.654,1.848-9.574-.031-1.27,0-14.83,15.436-15.876.1,0,9.987-.88,15.321,4.666a12.11,12.11,0,0,1,3.13,6.522,10.18,10.18,0,1,0,2.755.3ZM49.2,20.6l3.4.625a.525.525,0,0,1,.417.61l-.062.436a.529.529,0,0,1-.61.421l-3.4-.625a.513.513,0,0,1-.332-.216.536.536,0,0,1-.089-.386l.081-.44A.54.54,0,0,1,49.2,20.6ZM22.963,21.85a.525.525,0,0,1-.336.216l-3.4.625a.536.536,0,0,1-.61-.424l-.081-.432a.525.525,0,0,1,.085-.386.54.54,0,0,1,.336-.216l3.4-.625h.089a.529.529,0,0,1,.529.428l.081.44a.521.521,0,0,1-.085.374Zm12.812,6.329c7.753,11.095,7.591,33.613,7.587,33.86h0a7.587,7.587,0,1,1-15.174,0h0c.008-.247-.151-22.765,7.6-33.86ZM32.1,73.905a14.889,14.889,0,0,1-1.424-2.983,10.176,10.176,0,0,0,10.227,0,14.664,14.664,0,0,1-1.424,2.983c-.533.818-1.123,1.571-1.69,2.315a25.356,25.356,0,0,0-2,2.833,24.86,24.86,0,0,0-2-2.833C33.221,75.484,32.634,74.731,32.1,73.905ZM92.207,90.268a2.412,2.412,0,1,1-2.412,2.408,2.412,2.412,0,0,1,2.412-2.408Zm0,9.937a7.529,7.529,0,0,1-.077-15.05,23.548,23.548,0,0,1-.1,2.466,5.113,5.113,0,1,0,2.613.637,26.116,26.116,0,0,0,.139-2.643,7.525,7.525,0,0,1-2.578,14.6Z" transform="translate(-13.856 -15.885)"/></svg>