<svg xmlns="http://www.w3.org/2000/svg" width="99" height="98.151" viewBox="0 0 99 98.151"><defs><style>.a{fill:none;}</style></defs><g transform="translate(0.437 1.001)"><rect class="a" width="98.563" height="96.738" transform="translate(0 0)"/></g><g transform="translate(0)"><path d="M98.151,70.549a27.6,27.6,0,0,0-18.4-26V12.269H73.619V6.131h6.134V0H9.208A10.379,10.379,0,0,0,4.773,1.086,8.661,8.661,0,0,0,0,9.2c0,.018,0,.037,0,.055v82.76c0,6.134,6.134,6.134,6.134,6.134H70.8l-.021-.012A27.591,27.591,0,0,0,98.151,70.549ZM8.751,12.211a3.861,3.861,0,0,1-1.776-.73c-.423-.411-.788-.745-.834-2.279.1-1.981.6-2.1,1.371-2.626a4.531,4.531,0,0,1,1.239-.383c.359-.067.451-.043.457-.061H67.485v6.138H9.208A2.431,2.431,0,0,1,8.751,12.211Zm3.524,79.806V18.4H73.619V43.125A27.59,27.59,0,0,0,53.21,92.017Zm58.271,0A21.471,21.471,0,1,1,92.017,70.549,21.5,21.5,0,0,1,70.546,92.017Z" transform="translate(0)"/><g transform="translate(55.21 55.21)"><path d="M48.672,30.269H36.409V18H30.269V30.269H18V36.4H30.269V48.672h6.141V36.4H48.672Z" transform="translate(-18 -18)"/></g></g></svg>