<svg xmlns="http://www.w3.org/2000/svg" width="172.295" height="92.151" viewBox="0 0 172.295 92.151"><g transform="translate(0 0)"><g transform="translate(5.306)"><path d="M111.727,86.149H51.13A2.54,2.54,0,0,1,48.9,85.032a15.141,15.141,0,0,0-11.449-5.585A14.281,14.281,0,0,0,26,85.032a3.447,3.447,0,0,1-2.234,1.117H5.892A2.638,2.638,0,0,1,3.1,83.357V18.292A2.638,2.638,0,0,1,5.892,15.5H111.727a2.638,2.638,0,0,1,2.792,2.792V83.357A2.8,2.8,0,0,1,111.727,86.149ZM52.247,80.564h56.687V21.085H8.685V80.564H22.647a20.264,20.264,0,0,1,29.6,0Z" transform="translate(-3.1 -15.5)"/></g><g transform="translate(111.14 16.475)"><path d="M93.5,75.574H76.185a2.54,2.54,0,0,1-2.234-1.117A15.141,15.141,0,0,0,62.5,68.872a14.281,14.281,0,0,0-11.449,5.585,3.447,3.447,0,0,1-2.234,1.117H43.792A2.638,2.638,0,0,1,41,72.781V24.192A2.638,2.638,0,0,1,43.792,21.4H61.664a2.828,2.828,0,0,1,2.513,1.675L75.347,52.4l18.989,7.819a2.683,2.683,0,0,1,1.675,2.513V72.781A2.31,2.31,0,0,1,93.5,75.574ZM77.581,69.989H90.706V64.683l-18.43-7.54A2.518,2.518,0,0,1,70.6,55.468L59.71,26.985H46.585v43H47.7a20.586,20.586,0,0,1,29.879,0Z" transform="translate(-41 -21.4)"/></g><g transform="translate(0 65.064)"><path d="M22.981,55.555H3.992A2.638,2.638,0,0,1,1.2,52.762V41.592A2.638,2.638,0,0,1,3.992,38.8H27.17a2.684,2.684,0,0,1,2.513,1.675,3.058,3.058,0,0,1-.279,3.072,15.166,15.166,0,0,0-3.351,9.494A3.038,3.038,0,0,1,22.981,55.555ZM6.785,49.97H20.468a18.534,18.534,0,0,1,1.675-5.585H6.785Z" transform="translate(-1.2 -38.8)"/></g><g transform="translate(50.518 64.785)"><path d="M83.822,55.734h-57.8a2.638,2.638,0,0,1-2.792-2.792,15.166,15.166,0,0,0-3.351-9.494,3,3,0,0,1-.279-3.072A3.209,3.209,0,0,1,22.109,38.7h65.9a2.684,2.684,0,0,1,2.513,1.675,3.058,3.058,0,0,1-.279,3.072,15.166,15.166,0,0,0-3.351,9.494A3.044,3.044,0,0,1,83.822,55.734ZM28.531,50.149H81.309a18.534,18.534,0,0,1,1.675-5.585H27.135A32.662,32.662,0,0,1,28.531,50.149Z" transform="translate(-19.291 -38.7)"/></g><g transform="translate(143.787 64.785)"><path d="M78.128,55.734H59.418a2.638,2.638,0,0,1-2.792-2.792,15.166,15.166,0,0,0-3.351-9.494A3,3,0,0,1,53,40.375,3.209,3.209,0,0,1,55.509,38.7h22.9A2.638,2.638,0,0,1,81.2,41.492v11.17C80.92,54.617,79.8,55.734,78.128,55.734Zm-16.2-5.585h13.4V44.564H60.256A18.534,18.534,0,0,1,61.931,50.149Z" transform="translate(-52.691 -38.7)"/></g><g transform="translate(39.374 11.17)"><path d="M36.8,62.5a21.5,21.5,0,1,1,0-43,21.5,21.5,0,1,1,0,43Zm0-37.419A15.917,15.917,0,1,0,52.719,41,15.91,15.91,0,0,0,36.8,25.085Z" transform="translate(-15.3 -19.5)"/><g transform="translate(8.657 18.709)"><path d="M41.577,31.785H21.192A2.638,2.638,0,0,1,18.4,28.992,2.638,2.638,0,0,1,21.192,26.2H41.577a2.638,2.638,0,0,1,2.792,2.792A2.8,2.8,0,0,1,41.577,31.785Z" transform="translate(-18.4 -26.2)"/></g><g transform="translate(18.71 8.657)"><path d="M24.792,48.57A2.638,2.638,0,0,1,22,45.777V25.392A2.638,2.638,0,0,1,24.792,22.6a2.638,2.638,0,0,1,2.792,2.792V45.777A2.8,2.8,0,0,1,24.792,48.57Z" transform="translate(-22 -22.6)"/></g></g><g transform="translate(26.528 65.902)"><path d="M23.825,65.349A13.125,13.125,0,1,1,36.949,52.225,13.109,13.109,0,0,1,23.825,65.349Zm0-20.664a7.54,7.54,0,1,0,7.54,7.54A7.508,7.508,0,0,0,23.825,44.685Z" transform="translate(-10.7 -39.1)"/></g><g transform="translate(119.797 66.46)"><path d="M56.945,64.991a12.845,12.845,0,1,1,0-25.691A12.993,12.993,0,0,1,69.791,52.145,12.811,12.811,0,0,1,56.945,64.991Zm0-20.385a7.21,7.21,0,0,0-7.26,7.26,7.26,7.26,0,1,0,7.26-7.26Z" transform="translate(-44.1 -39.3)"/></g></g></svg>